
<svg version="1.0" xmlns="http://www.w3.org/2000/svg"
 width="2156.000000pt" height="902.000000pt" viewBox="0 0 2156.000000 902.000000"
 preserveAspectRatio="xMidYMid meet">

<g transform="translate(0.000000,902.000000) scale(0.100000,-0.100000)"
fill="#000000" stroke="none">
<path d="M10579 8412 c-143 -291 -165 -332 -188 -337 -14 -3 -61 -10 -103 -15
-106 -14 -218 -29 -308 -41 -41 -6 -106 -15 -145 -20 -115 -15 -145 -21 -150
-29 -4 -6 363 -368 489 -482 l40 -36 -33 -183 c-17 -101 -36 -204 -41 -229 -5
-25 -14 -74 -20 -110 -6 -36 -15 -83 -20 -105 -20 -90 -20 -105 -4 -105 15 0
104 45 294 150 47 26 147 80 223 119 l137 73 73 -40 c39 -21 113 -61 162 -87
50 -26 113 -60 140 -75 62 -34 202 -109 235 -127 51 -27 56 -18 40 67 -4 25
-13 70 -18 100 -16 82 -50 270 -73 400 -11 63 -22 122 -25 132 -3 11 74 91
265 274 148 142 268 261 266 265 -6 9 -89 21 -575 85 -63 8 -126 17 -138 20
-20 4 -47 53 -163 292 -168 345 -171 351 -186 364 -10 8 -51 -69 -174 -320z"/>
<path d="M6982 7718 c-7 -7 -12 -16 -12 -22 0 -5 -31 -73 -69 -150 -37 -78
-105 -218 -150 -311 l-82 -171 -172 -22 c-95 -13 -233 -31 -307 -42 -74 -10
-161 -22 -192 -25 -47 -5 -58 -10 -58 -25 0 -10 10 -25 23 -33 12 -8 67 -60
123 -114 55 -54 163 -158 239 -232 l139 -133 -27 -167 c-16 -91 -37 -211 -48
-266 -54 -278 -56 -295 -36 -295 16 0 59 22 267 135 63 34 160 86 215 115 55
29 109 59 120 66 30 21 60 17 118 -15 28 -16 147 -79 262 -141 116 -62 234
-126 263 -142 46 -25 53 -27 59 -12 3 9 1 46 -6 83 -7 36 -21 111 -32 166 -23
122 -43 237 -66 371 l-16 100 134 130 c74 71 191 183 260 249 70 66 127 127
128 137 1 12 -11 18 -51 23 -29 3 -98 13 -153 20 -55 8 -192 26 -305 40 -113
15 -210 32 -217 38 -6 7 -81 156 -166 331 -84 176 -158 321 -163 323 -6 2 -15
-2 -22 -9z"/>
<path d="M14445 7648 c-105 -225 -277 -573 -286 -579 -6 -3 -86 -16 -177 -28
-92 -13 -192 -26 -222 -31 -30 -5 -100 -14 -155 -20 -129 -15 -168 -23 -172
-35 -2 -6 72 -82 164 -169 260 -247 363 -348 363 -358 0 -5 -6 -41 -14 -81 -8
-40 -20 -103 -26 -142 -6 -38 -20 -115 -31 -170 -11 -55 -24 -127 -30 -160 -6
-33 -15 -79 -20 -103 -5 -24 -7 -47 -4 -53 8 -11 38 -12 50 0 6 5 44 26 85 48
41 22 100 54 130 70 274 149 379 203 395 203 16 0 92 -38 260 -130 77 -43 182
-98 270 -144 44 -22 82 -44 85 -48 3 -3 14 -8 25 -10 28 -4 26 14 -15 227 -10
56 -41 226 -64 355 -9 47 -18 99 -22 116 -6 30 4 40 260 285 146 139 265 258
263 263 -4 13 -41 21 -162 35 -55 7 -127 16 -160 21 -33 5 -135 19 -227 31
-92 12 -171 25 -176 28 -8 5 -249 496 -306 624 -9 20 -23 37 -30 37 -7 0 -30
-37 -51 -82z"/>
<path d="M338 6709 c-10 -5 -22 -19 -28 -29 -14 -26 -15 -6152 -1 -6177 27
-53 28 -53 324 -55 l276 -3 28 28 28 27 0 573 c0 314 -2 733 -4 930 -4 298 -2
360 9 367 8 5 17 7 21 4 4 -2 54 -9 111 -15 57 -5 141 -14 188 -19 524 -56
578 -57 790 -23 492 79 825 402 1024 995 89 263 126 486 133 790 18 744 -164
1298 -552 1683 -260 258 -562 422 -1005 545 -509 142 -861 246 -1185 351 -133
43 -132 43 -157 28z m702 -931 c19 -5 51 -13 70 -18 19 -4 96 -24 170 -43 74
-19 214 -53 310 -76 214 -52 273 -72 373 -124 316 -167 536 -518 593 -947 30
-232 7 -533 -57 -725 -33 -96 -95 -222 -145 -293 -52 -72 -153 -173 -193 -193
-14 -7 -37 -21 -51 -30 -14 -9 -54 -27 -90 -40 -56 -20 -83 -23 -190 -23 -75
0 -181 9 -265 22 -77 11 -210 30 -295 41 -239 32 -302 43 -305 55 -7 19 -14
2404 -7 2410 3 4 15 3 26 0 12 -4 37 -11 56 -16z"/>
<path d="M21080 6681 c-63 -21 -135 -44 -160 -51 -180 -53 -206 -63 -239 -98
l-34 -35 7 -1439 c5 -951 4 -1438 -2 -1438 -9 0 -63 76 -82 115 -3 6 -24 35
-46 65 -100 132 -254 248 -385 291 -65 21 -92 24 -224 24 -171 0 -238 -13
-370 -75 -110 -50 -208 -117 -318 -215 -119 -106 -171 -165 -258 -295 -132
-196 -250 -471 -325 -757 -47 -179 -64 -278 -90 -503 -18 -163 -21 -581 -5
-695 56 -397 175 -674 374 -877 93 -95 181 -157 298 -212 374 -174 843 -151
1158 58 78 52 212 188 267 270 20 31 40 53 44 49 7 -8 22 -104 41 -269 6 -55
18 -109 26 -120 18 -25 82 -30 312 -24 182 5 184 5 202 30 18 24 19 138 20
3118 1 2440 -1 3095 -11 3107 -20 24 -76 17 -200 -24z m-965 -3531 c64 -27 82
-36 135 -71 136 -90 274 -297 330 -494 56 -199 63 -259 57 -506 -4 -169 -9
-232 -26 -300 -91 -380 -280 -616 -567 -710 -99 -33 -261 -33 -358 0 -328 111
-527 455 -527 909 0 196 21 320 83 507 86 261 266 503 453 611 61 35 93 47
180 68 36 9 209 -2 240 -14z"/>
<path d="M11145 5149 c-196 -10 -338 -27 -535 -65 -953 -187 -1485 -837 -1591
-1944 -16 -162 -6 -639 16 -810 99 -771 409 -1327 917 -1642 530 -329 1390
-409 2215 -207 272 66 551 186 593 255 21 33 22 46 26 492 2 251 6 629 9 840
5 416 2 451 -45 502 l-28 30 -241 0 c-147 0 -249 -4 -263 -11 -13 -5 -35 -26
-48 -46 l-25 -37 -5 -662 c-3 -364 -7 -664 -10 -666 -65 -49 -238 -132 -361
-174 -288 -98 -492 -113 -787 -58 -290 54 -531 173 -735 364 -285 267 -455
613 -534 1085 -25 155 -26 591 0 750 144 909 739 1453 1592 1457 181 0 280
-11 439 -52 210 -53 370 -131 506 -245 55 -47 70 -55 105 -55 23 0 49 8 61 18
21 17 84 105 84 116 0 4 52 84 115 179 145 217 148 235 45 304 -45 31 -185 99
-250 122 -19 7 -44 17 -55 21 -93 39 -354 94 -570 120 -87 10 -420 31 -460 28
-11 0 -92 -5 -180 -9z"/>
<path d="M3722 3722 c-26 -4 -54 -42 -54 -74 -1 -31 12 -2074 16 -2691 3 -451
5 -489 21 -507 17 -19 33 -20 310 -20 279 0 293 1 310 20 17 19 18 51 9 718
-14 1108 -15 1085 44 1264 61 185 191 352 323 415 97 46 134 55 228 56 154 1
298 -62 431 -189 77 -74 100 -85 132 -61 23 18 268 526 268 555 0 46 -36 98
-140 202 -191 191 -374 270 -624 270 -144 0 -230 -22 -350 -92 -95 -55 -258
-218 -315 -315 -23 -40 -46 -73 -51 -73 -13 0 -18 22 -40 205 -24 203 -34 241
-63 257 -24 13 -418 65 -455 60z"/>
<path d="M16845 3714 c-11 -3 -66 -14 -122 -24 -243 -46 -526 -171 -716 -317
-119 -92 -157 -147 -157 -228 0 -57 150 -452 181 -477 39 -33 83 -21 178 47
117 84 270 161 389 197 154 45 188 51 312 52 114 0 130 -2 180 -26 30 -14 74
-39 97 -56 70 -52 155 -178 182 -272 7 -25 18 -58 23 -75 6 -16 13 -114 15
-216 5 -182 5 -187 -15 -193 -11 -4 -87 -11 -169 -16 -763 -45 -822 -50 -937
-80 -373 -95 -603 -353 -661 -741 -19 -127 -19 -220 0 -326 29 -166 73 -253
180 -359 118 -117 304 -194 537 -224 197 -24 507 -6 675 40 154 42 367 169
432 258 13 18 23 24 29 17 5 -5 17 -57 27 -114 18 -113 28 -137 60 -145 11 -3
111 -6 222 -6 199 0 202 0 230 24 l28 24 0 1094 c0 1008 -1 1102 -18 1203 -73
440 -251 714 -560 861 -140 66 -191 76 -407 80 -107 1 -204 1 -215 -2z m555
-2169 c15 -18 6 -160 -16 -244 -50 -194 -208 -364 -399 -429 -237 -80 -493
-44 -626 89 -61 61 -89 133 -89 227 0 88 14 135 58 197 66 94 151 125 367 135
381 18 621 31 640 34 42 7 53 6 65 -9z"/>
<path d="M14799 3525 c-225 -45 -470 -224 -627 -460 -64 -95 -82 -118 -90
-111 -5 5 -42 296 -42 332 0 17 -10 44 -22 59 l-21 27 -211 -7 c-116 -4 -227
-13 -246 -19 -24 -7 -41 -22 -53 -46 -17 -32 -18 -56 -14 -265 2 -126 1 -759
-3 -1405 -7 -1024 -7 -1177 6 -1190 12 -13 61 -15 309 -15 269 0 296 2 312 18
17 17 18 68 24 820 5 676 8 811 21 862 66 256 186 437 369 555 95 61 160 82
274 88 163 7 281 -32 394 -133 34 -30 70 -55 79 -55 34 0 65 33 97 104 18 39
56 121 85 181 150 315 152 322 127 372 -22 42 -157 166 -220 202 -160 91 -363
123 -548 86z"/>
<path d="M6990 3486 c-267 -40 -456 -139 -661 -345 -225 -227 -373 -513 -454
-880 -62 -285 -62 -658 1 -921 119 -494 441 -814 929 -924 139 -31 193 -37
370 -43 252 -8 446 17 650 84 201 66 329 144 470 287 207 210 299 448 326 841
11 147 10 189 -5 315 -61 531 -324 1040 -671 1301 -303 228 -649 331 -955 285z
m286 -817 c250 -45 446 -205 582 -474 84 -166 122 -340 117 -530 -6 -188 -49
-329 -141 -460 -69 -99 -162 -179 -267 -229 -50 -24 -117 -50 -147 -57 -72
-18 -279 -18 -350 0 -76 19 -188 71 -260 122 -233 163 -368 527 -320 864 35
247 131 448 283 591 150 143 329 205 503 173z"/>
</g>
</svg>
